<svg width="14" height="17" viewBox="0 0 14 17" fill="none" xmlns="http://www.w3.org/2000/svg">
<g clip-path="url(#clip0_281_8891)">
<path d="M8.96432 4.53352C9.56117 4.53352 10.0495 3.95037 10.0495 3.23762C10.0495 2.52488 9.56117 1.94173 8.96432 1.94173C8.36748 1.94173 7.87915 2.52488 7.87915 3.23762C7.87915 3.95037 8.36748 4.53352 8.96432 4.53352ZM3.26714 8.74517C1.74789 8.74517 0.554199 10.1707 0.554199 11.9849C0.554199 13.7992 1.74789 15.2246 3.26714 15.2246C4.78639 15.2246 5.98009 13.7992 5.98009 11.9849C5.98009 10.1707 4.78639 8.74517 3.26714 8.74517ZM3.26714 14.2527C2.23622 14.2527 1.36808 13.216 1.36808 11.9849C1.36808 10.7538 2.23622 9.71709 3.26714 9.71709C4.29806 9.71709 5.1662 10.7538 5.1662 11.9849C5.1662 13.216 4.29806 14.2527 3.26714 14.2527ZM6.41416 7.77325L7.71637 6.21818L8.15044 6.73654C8.85581 7.57887 9.77821 8.09722 10.9176 8.09722V6.80133C10.1038 6.80133 9.45265 6.41256 8.96432 5.82941L7.93341 4.59831C7.66211 4.33913 7.39082 4.20954 7.06526 4.20954C6.73971 4.20954 6.46842 4.33913 6.30564 4.59831L4.78639 6.41256C4.56936 6.67174 4.46084 6.99571 4.46084 7.31969C4.46084 7.70846 4.56936 8.03243 4.78639 8.22681L6.52268 10.0411V13.2808H7.60785V9.26353L6.41416 7.77325ZM10.8634 8.74517C9.34414 8.74517 8.15044 10.1707 8.15044 11.9849C8.15044 13.7992 9.34414 15.2246 10.8634 15.2246C12.3826 15.2246 13.5763 13.7992 13.5763 11.9849C13.5763 10.1707 12.3826 8.74517 10.8634 8.74517ZM10.8634 14.2527C9.83247 14.2527 8.96432 13.216 8.96432 11.9849C8.96432 10.7538 9.83247 9.71709 10.8634 9.71709C11.8943 9.71709 12.7624 10.7538 12.7624 11.9849C12.7624 13.216 11.8943 14.2527 10.8634 14.2527Z" fill="#F8F8F8"/>
</g>
<defs>
<clipPath id="clip0_281_8891">
<rect width="13.0221" height="15.5507" fill="white" transform="translate(0.554199 0.96981)"/>
</clipPath>
</defs>
</svg>
