<svg width="9" height="12" viewBox="0 0 9 12" fill="none" xmlns="http://www.w3.org/2000/svg">
<path d="M4.2 0C1.883 0 0 2.0175 0 4.5C0 6.015 0.819 7.2825 1.771 8.1675C2.072 8.445 2.597 8.8875 3.066 9.54C3.584 10.2675 4.053 11.0475 4.2 11.5725C4.347 11.0475 4.816 10.2675 5.334 9.54C5.803 8.8875 6.328 8.445 6.629 8.1675C7.581 7.2825 8.4 6.015 8.4 4.5C8.4 2.0175 6.517 0 4.2 0ZM4.2 1.92C4.51622 1.92 4.82935 1.98673 5.1215 2.11639C5.41365 2.24605 5.67911 2.43609 5.90271 2.67566C6.12632 2.91524 6.30369 3.19966 6.4247 3.51268C6.54571 3.8257 6.608 4.16119 6.608 4.5C6.608 4.83881 6.54571 5.1743 6.4247 5.48732C6.30369 5.80034 6.12632 6.08476 5.90271 6.32434C5.67911 6.56391 5.41365 6.75395 5.1215 6.88361C4.82935 7.01327 4.51622 7.08 4.2 7.08C3.56136 7.08 2.94887 6.80818 2.49729 6.32434C2.0457 5.84049 1.792 5.18426 1.792 4.5C1.792 3.81574 2.0457 3.15951 2.49729 2.67566C2.94887 2.19182 3.56136 1.92 4.2 1.92Z" fill="#262833"/>
</svg>
