<svg width="9" height="13" viewBox="0 0 9 13" fill="none" xmlns="http://www.w3.org/2000/svg">
<path fill-rule="evenodd" clip-rule="evenodd" d="M1.21097 0.279175C1.02694 0.279175 0.850449 0.347979 0.720322 0.470452C0.590194 0.592925 0.51709 0.759033 0.51709 0.932236V11.3812C0.51709 11.5544 0.590194 11.7205 0.720322 11.843C0.850449 11.9655 1.02694 12.0343 1.21097 12.0343H7.45586C7.63989 12.0343 7.81638 11.9655 7.94651 11.843C8.07664 11.7205 8.14974 11.5544 8.14974 11.3812V0.932236C8.14974 0.759033 8.07664 0.592925 7.94651 0.470452C7.81638 0.347979 7.63989 0.279175 7.45586 0.279175H1.21097ZM3.98648 1.91183C3.98648 1.82523 4.02303 1.74217 4.08809 1.68094C4.15316 1.6197 4.2414 1.5853 4.33342 1.5853C4.42543 1.5853 4.51367 1.6197 4.57874 1.68094C4.6438 1.74217 4.68036 1.82523 4.68036 1.91183V3.21795C4.68036 3.30455 4.6438 3.38761 4.57874 3.44884C4.51367 3.51008 4.42543 3.54448 4.33342 3.54448C4.2414 3.54448 4.15316 3.51008 4.08809 3.44884C4.02303 3.38761 3.98648 3.30455 3.98648 3.21795V1.91183ZM3.98648 5.50366C3.98648 5.41706 4.02303 5.33401 4.08809 5.27277C4.15316 5.21154 4.2414 5.17713 4.33342 5.17713C4.42543 5.17713 4.51367 5.21154 4.57874 5.27277C4.6438 5.33401 4.68036 5.41706 4.68036 5.50366V6.80979C4.68036 6.89639 4.6438 6.97944 4.57874 7.04068C4.51367 7.10192 4.42543 7.13632 4.33342 7.13632C4.2414 7.13632 4.15316 7.10192 4.08809 7.04068C4.02303 6.97944 3.98648 6.89639 3.98648 6.80979V5.50366ZM4.33342 8.76897C4.2414 8.76897 4.15316 8.80337 4.08809 8.86461C4.02303 8.92585 3.98648 9.0089 3.98648 9.0955V10.4016C3.98648 10.4882 4.02303 10.5713 4.08809 10.6325C4.15316 10.6938 4.2414 10.7282 4.33342 10.7282C4.42543 10.7282 4.51367 10.6938 4.57874 10.6325C4.6438 10.5713 4.68036 10.4882 4.68036 10.4016V9.0955C4.68036 9.0089 4.6438 8.92585 4.57874 8.86461C4.51367 8.80337 4.42543 8.76897 4.33342 8.76897Z" fill="#262833"/>
</svg>
