<svg width="13" height="11" viewBox="0 0 13 11" fill="none" xmlns="http://www.w3.org/2000/svg">
<path d="M0.909067 6C1.04565 4.84501 1.59059 3.7654 2.45782 2.93167L3.41282 3.82271L3.855 3.41029L2.91719 2.53529C3.84199 1.82039 4.98845 1.40179 6.1875 1.34121V2.79167H6.8125V1.34121C8.01156 1.40177 9.15803 1.82037 10.0828 2.53529L9.18282 3.375L9.625 3.78742L10.5422 2.93138C11.4095 3.76518 11.9544 4.84491 12.0909 6H10.7763V6.58333H12.125C12.1263 7.79987 11.6725 8.97865 10.8419 9.91621L9.77313 8.91871L9.33094 9.33113L10.4178 10.3453L10.4138 10.3488L10.8484 10.7679C11.4507 10.225 11.9295 9.57443 12.2563 8.85494C12.583 8.13546 12.7509 7.36186 12.75 6.58042C12.75 3.36042 9.95157 0.75 6.5 0.75C3.04844 0.75 0.250004 3.36013 0.250004 6.58042C0.248123 8.11737 0.898716 9.59242 2.05938 10.6827L2.50313 10.2723L2.49719 10.2665L3.43657 9.39004L2.99469 8.97763L2.0825 9.82871C1.2993 8.90501 0.873756 7.76128 0.875004 6.58333H2.14157V6H0.909067Z" fill="#262833"/>
<path d="M7.01016 9.64555C6.89804 9.69266 6.77136 9.69992 6.65391 9.66597L2.61453 8.08134C2.01672 7.90868 2.16547 7.33467 2.78328 7.42509L7.15328 7.65872C7.27453 7.67651 7.38485 7.73513 7.46328 7.82351L8.00078 8.51534C8.08328 8.81576 8.04797 8.9578 7.81922 9.24509L7.01016 9.64584V9.64555Z" fill="#262833"/>
</svg>
